<svg width="277" height="110" viewBox="0 0 277 110" fill="none" xmlns="http://www.w3.org/2000/svg">
<path d="M35.718 -34.9139C17.1425 -34.0699 5.76835 -19.7933 2.40322 -12.7604C2.40322 -12.7604 -4.66141 6.22946 5.43453 24.1632C15.5305 42.097 34.9829 45.4715 48.4137 71.4462C65.4211 104.338 82.1195 106.565 87.0221 108.119C91.9248 109.674 123.819 115.177 150.757 95.2516C177.721 75.3065 185.132 89.5688 218.447 79.0195C248.733 69.4292 277 43.1513 277 15.7231C277 -8.53848 252.771 -34.9139 225.514 -35.9545C191.932 -37.2366 192.199 -11.0223 152.827 -8.5289C119.512 -6.41913 76.0995 -36.7485 35.718 -34.9139Z" fill="#981140"/>
</svg>
