<svg width="310" height="247" viewBox="0 0 310 247" fill="none" xmlns="http://www.w3.org/2000/svg">
<path d="M292.595 233.862C301.528 243.321 307.92 246.562 310 247L0 245.686V9.20147C1.64194 6.24541 17.7331 -2.44726 38.0932 0.661741C85.7098 7.9328 76.1864 29.237 117.564 41.0612C133.521 45.6213 164.523 33.5068 167.479 31.2077C169.843 29.3684 177.659 27.3758 181.271 26.6094C196.815 23.1059 233.222 22.2081 254.502 46.6449C280.915 76.976 270.739 110.869 268.666 117.776L268.623 117.919C267.047 123.174 266.434 135.217 266.324 140.582C267.2 146.166 270.659 158.712 277.489 164.23C286.028 171.128 289.968 175.726 292.595 184.923C294.697 192.28 291.72 202.878 289.968 207.257C287.122 212.184 283.663 224.403 292.595 233.862Z" fill="#4371AC"/>
<path d="M292.595 233.862C301.528 243.321 307.92 246.562 310 247L0 245.686V9.20147C1.64194 6.24541 17.7331 -2.44726 38.0932 0.661741C85.7098 7.9328 76.1864 29.237 117.564 41.0612C133.521 45.6213 164.523 33.5068 167.479 31.2077C169.843 29.3684 177.659 27.3758 181.271 26.6094C196.815 23.1059 233.222 22.2081 254.502 46.6449C280.915 76.976 270.739 110.869 268.666 117.776L268.623 117.919C267.047 123.174 266.434 135.217 266.324 140.582C267.2 146.166 270.659 158.712 277.489 164.23C286.028 171.128 289.968 175.726 292.595 184.923C294.697 192.28 291.72 202.878 289.968 207.257C287.122 212.184 283.663 224.403 292.595 233.862Z" fill="#DC9138"/>
</svg>
