<svg width="44" height="40" viewBox="0 0 44 40" xmlns="http://www.w3.org/2000/svg">
<path d="M22.0167 30H21.9866C21.8667 30.0001 21.7498 29.9636 21.652 29.8955C21.3327 29.672 13.7548 24.3758 10.9632 19.9065L10.9522 19.8883C10.3285 18.8725 9.99924 17.7093 10 16.5238C10 12.9255 12.9866 10 16.6568 10C17.6957 9.99946 18.7202 10.2374 19.6484 10.6947C20.5766 11.152 21.3826 11.8161 22.0019 12.6336C22.6212 11.8162 23.4271 11.1523 24.3551 10.695C25.2831 10.2377 26.3074 9.99968 27.3461 10C31.0158 10 34 12.9255 34 16.5247C34.001 17.7102 33.6717 18.8736 33.0478 19.8892C33.0445 19.8955 33.0408 19.9016 33.0368 19.9075C30.2476 24.3753 22.6711 29.672 22.3499 29.8955C22.2523 29.9638 22.1352 30.0003 22.0153 30H22.0167Z"/>
</svg>
