<svg width="48" height="48" viewBox="0 0 48 48" fill="none" xmlns="http://www.w3.org/2000/svg">
<path d="M26.6328 29.7374C26.4645 29.5926 26.2663 29.4206 26.0694 29.2791C27.5471 28.9918 28.286 28.6653 29.5799 27.9861C29.7207 27.906 29.8537 27.8149 29.9774 27.714C30.6936 27.1089 30.6483 26.0608 29.9965 25.4284C29.6279 25.1057 29.1361 24.9262 28.625 24.9277C28.181 24.9495 27.7644 25.1454 27.3872 25.349C26.3737 25.8932 25.2075 26.1609 24.0389 26.2676C22.1386 26.3905 20.8781 26.0216 19.4385 25.288C18.9664 25.031 18.4042 24.9488 17.8676 25.0584C17.455 25.1312 17.0904 25.3494 16.853 25.6657C16.28 26.4276 16.3994 27.394 17.2613 27.9513C18.2723 28.6109 19.7357 29.019 20.9425 29.3662C20.28 30.0552 19.0518 31.1077 18.3165 31.7759C17.9851 32.0525 17.6725 32.3473 17.3806 32.6586C17.1391 32.9506 17.0194 33.3115 17.043 33.6767C17.0666 34.0418 17.232 34.3874 17.5095 34.6515C18.2663 35.3687 19.429 35.4406 20.2096 34.7309C21.1646 33.8929 22.0825 33.0243 23.0291 32.1797C23.2129 32.0132 23.4492 31.7955 23.5937 31.6704C24.6799 32.5955 25.7423 33.5402 26.8166 34.4839C27.0083 34.6587 27.2237 34.8105 27.4576 34.9355C28.2836 35.3502 29.3388 35.1706 29.8449 34.4479C30.3224 33.7753 30.289 32.946 29.6384 32.3637C28.6453 31.4864 27.6307 30.6201 26.6328 29.7374Z" fill="#FF7A00"/>
<path d="M21.4671 24.5148C24.7222 25.5357 28.2901 24.012 29.436 21.1114C30.5819 18.2108 28.8726 15.0327 25.6163 14.0118C22.3599 12.9909 18.7932 14.5135 17.6473 17.4141C16.5014 20.3147 18.2119 23.4939 21.4671 24.5148ZM21.1006 18.4971C21.3393 17.915 21.8187 17.4413 22.4359 17.1778C23.0532 16.9143 23.7591 16.8819 24.4023 17.0876C24.7197 17.1833 25.013 17.3357 25.265 17.536C25.517 17.7363 25.7227 17.9804 25.8699 18.2541C26.0172 18.5277 26.1032 18.8254 26.1227 19.1297C26.1423 19.434 26.0951 19.7388 25.9839 20.0263C25.7462 20.6092 25.2672 21.0839 24.6499 21.3484C24.0326 21.613 23.3262 21.6463 22.6822 21.4412C22.3643 21.3453 22.0706 21.1925 21.8183 20.9918C21.566 20.791 21.3601 20.5464 21.2128 20.2722C21.0655 19.998 20.9797 19.6998 20.9604 19.395C20.9412 19.0901 20.9888 18.7849 21.1006 18.4971Z" fill="#FF7A00"/>
</svg>
