<svg width="48" height="48" viewBox="0 0 48 48" fill="none" xmlns="http://www.w3.org/2000/svg">
<path d="M33.5333 20.31C33.5333 18.552 32.2401 17.1377 30.6423 17.1377C28.4779 17.0361 26.2706 16.9971 24.0163 16.9971C23.8991 16.9971 23.7819 16.9971 23.6647 16.9971C23.5475 16.9971 23.4303 16.9971 23.3131 16.9971C21.0628 16.9971 18.8516 17.0361 16.6872 17.1377C15.0932 17.1377 13.8001 18.5598 13.8001 20.3178C13.7024 21.7087 13.6594 23.0995 13.6633 24.4903C13.6594 25.8811 13.7024 27.2719 13.7962 28.6667C13.7962 30.4247 15.0893 31.8507 16.6833 31.8507C18.957 31.9562 21.2894 32.0031 23.6608 31.9992C26.0361 32.007 28.3607 31.9601 30.6383 31.8507C32.2362 31.8507 33.5294 30.4247 33.5294 28.6667C33.6231 27.2719 33.6661 25.8811 33.6622 24.4864C33.67 23.0956 33.627 21.7048 33.5333 20.31ZM21.7504 28.3229V20.646L27.4152 24.4825L21.7504 28.3229Z" fill="#EE3A3A"/>
</svg>
